<?xml version="1.0" standalone="no"?>
<!DOCTYPE svg PUBLIC "-//W3C//DTD SVG 20010904//EN"
 "http://www.w3.org/TR/2001/REC-SVG-20010904/DTD/svg10.dtd">
<svg version="1.0" xmlns="http://www.w3.org/2000/svg"
 width="192.000000pt" height="192.000000pt" viewBox="0 0 192.000000 192.000000"
 preserveAspectRatio="xMidYMid meet">
<metadata>
Created by potrace 1.14, written by Peter Selinger 2001-2017
</metadata>
<g transform="translate(0.000000,192.000000) scale(0.100000,-0.100000)"
fill="#000000" stroke="none">
<path d="M135 1901 c-22 -10 -54 -34 -72 -52 -66 -70 -63 -28 -63 -891 0 -741
1 -785 19 -823 10 -22 34 -54 52 -72 70 -66 28 -63 891 -63 741 0 785 1 823
19 22 10 54 34 72 52 66 70 63 28 63 889 0 861 3 819 -63 889 -18 18 -50 42
-72 52 -38 18 -81 19 -825 19 -744 0 -787 -1 -825 -19z m869 -418 c23 -36 570
-983 595 -1031 28 -53 42 -52 -639 -52 -681 0 -667 -1 -639 52 25 48 572 995
595 1031 15 22 32 37 44 37 12 0 29 -15 44 -37z"/>
<path d="M690 949 c-146 -253 -266 -465 -268 -470 -2 -5 210 -9 538 -9 328 0
540 4 538 9 -7 21 -533 930 -538 930 -3 0 -124 -207 -270 -460z m286 293 c16
-10 384 -648 384 -665 0 -35 -17 -37 -400 -37 -383 0 -400 2 -400 37 0 17 368
655 384 665 6 4 13 8 16 8 3 0 10 -4 16 -8z"/>
<path d="M810 878 c-80 -138 -146 -255 -148 -260 -2 -4 132 -8 298 -8 166 0
300 4 298 8 -9 23 -294 512 -298 512 -3 0 -70 -113 -150 -252z"/>
</g>
</svg>
